#FILENAME=cb0e7b0e
# xmcd CD database file
# Copyright (C) 1995-1998 Ti Kan
#
# Track frame offsets:
#	182
#	14695
#	31505
#	46240
#	66947
#	91490
#	108677
#	130135
#	159360
#	175662
#	192337
#	207587
#	223822
#	259287
#
# Disc length: 3709 seconds
#
# Revision: 34561676
# Submitted via:  xmcd 1.2
#
DISCID=cb0e7b0e
DTITLE=Eric Clapton / Unplugged
TTITLE0=Signe
TTITLE1=Before You Accuse Me
TTITLE2=Hey Hey
TTITLE3=Tears In Heaven
TTITLE4=Lonely Stranger
TTITLE5=Nobody Knows You When You're Down & Out
TTITLE6=Layla
TTITLE7=Running On Faith
TTITLE8=Walkin' Blues
TTITLE9=Alberta
TTITLE10=San Francisco Bay Blues
TTITLE11=Malted Milk
TTITLE12=Old Love
TTITLE13=Rollin' & Tumblin'
EXTD=Duck Records 9 45024-2\n1992 Reprise Records\n\nthe band:\neric clapton
EXTD=: guitar / vocals\nray cooper: percussion\nnathan east: bass guitar / b
EXTD=acking vocals\nsteve ferrone: drums\nchuck leavell: keyboards\nandy fai
EXTD=rweather low: guitar\nkatie kissoon: backing vocals\ntessa niles: backi
EXTD=ng vocals\n\nsound:\nproduced by russ titelman\nrecording by jim barton
EXTD=\nmixed by steve boyer at the power station, nyc.\nassisted by victor d
EXTD=eyglio\nmastered by ted jensen at sterling sound, nyc.\n\nfor mtv:\nexe
EXTD=cutive producer: joel gallen\nproduced by: alex coletti\ndirected by: m
EXTD=ilton lage\n\nthe crew:\nmick double: production / stage manager\nton c
EXTD=alcaterra: guitar technician\njohn collins: drum technician\nlee dickso
EXTD=n: e.c.'s guitar technician\ndoug hall: sound engineer\nbuford jones: s
EXTD=ound engineer\ntom kenney: lighting operator\ntim myer: keyboard techni
EXTD=cian\nwil roberts: head electrician\njohn roden: monitor engineer\nalan
EXTD= rogan: guitar technician\n\nspecial thanks:\ngladys bates, sharon chun
EXTD=g, mickey curbishley,\nvivien gibson, peter jackson, alphi o'leary,\ndi
EXTD= puplett, donna ranieri and showsec international\n\nsleeve design:\nbi
EXTD=ll smith studio, london\n\nalso available on laser disc and video\n\nro
EXTD=ger forrester management limited\nYEAR: 1999  ID3G:  17
EXTT0=eric clapton - unichappel inc. bmi.
EXTT1=e. mc.daniel - longitude music company bmi.
EXTT2=big bill broonzy - screen gems - emi music inc. bmi.
EXTT3=rider songs bmi.
EXTT4=eric clapton - unichappel inc. bmi.
EXTT5=jimmy cox - mca inc. ascap.
EXTT6=eric clapton - unichappel inc. bmi.
EXTT7=/ red brazos music, inc. bmi.
EXTT8=robert johnson - king of spades music bmi.
EXTT9=c. bmi.
EXTT10=jesse fuller - hollis music inc. bmi.
EXTT11=jobert johnson - king of spades music inc. bmi.
EXTT12=y music inc. bmi.
EXTT13=m. morganfield - arc music corp. / watertoons bmi.
PLAYORDER=
